<svg width="135" height="38" viewBox="0 0 135 38" fill="none" xmlns="http://www.w3.org/2000/svg">
<path d="M66.2962 0.0200046L52.2335 37.9752H59.8943L62.8848 29.8349H78.4169L81.4082 37.9752H89.2263L75.1119 0.0200046H66.2962ZM70.5988 8.6364L75.9507 23.227H65.2986L70.5988 8.6364Z" fill="white"/>
<path d="M91.749 37.976H99.4622V0.0208048H91.749V37.976Z" fill="white"/>
<path d="M120.518 17.412H113.225V6.62793H120.518C125.03 6.62793 127.34 8.58359 127.34 12.0204C127.34 15.4036 125.031 17.412 120.518 17.412ZM120.937 0.0200046H105.511V37.9752H113.225V24.0192H120.937C129.595 24.0192 135 19.843 135 12.0196C135 4.14256 129.595 0.0200046 120.937 0.0200046Z" fill="white"/>
<path d="M35.0818 21.9747L1.2081 36.1364L38.2232 27.3463L35.0818 21.9747Z" fill="white"/>
<path d="M2.92534 33.5342L31.9341 16.5918L28.9698 11.5235L2.92534 33.5342Z" fill="white"/>
<path d="M22.2303 0L4.49325 30.2574L25.6076 5.77414L22.2303 0Z" fill="white"/>
<path d="M0 37.9896L0.00635424 38H44.4511L41.1286 32.6212L0 37.9896Z" fill="white"/>
</svg>
