<?xml version="1.0" encoding="UTF-8"?>
<svg xmlns="http://www.w3.org/2000/svg" style="display: none;">
  <symbol id="aip-far-heart" viewBox="0 0 21 19" xmlns="http://www.w3.org/2000/svg">
    <path d="M18.5469 1.96094C19.7708 3.08073 20.4219 4.40885 20.5 5.94531C20.5521 7.48177 20.0312 8.84896 18.9375 10.0469L11.3984 17.8594C11.138 18.1198 10.8385 18.25 10.5 18.25C10.1615 18.25 9.86198 18.1198 9.60156 17.8594L2.0625 10.0469C0.96875 8.875 0.447917 7.50781 0.5 5.94531C0.552083 4.40885 1.1901 3.08073 2.41406 1.96094C3.40365 1.15365 4.4974 0.75 5.69531 0.75C7.23177 0.776042 8.57292 1.34896 9.71875 2.46875L10.5 3.25L11.2812 2.46875C12.4271 1.34896 13.7682 0.776042 15.3047 0.75C16.5286 0.723958 17.6094 1.1276 18.5469 1.96094ZM17.6094 8.75781C18.2604 8.05469 18.599 7.18229 18.625 6.14062C18.651 5.09896 18.2344 4.17448 17.375 3.36719C16.5417 2.71615 15.6823 2.48177 14.7969 2.66406C13.8854 2.84635 13.1562 3.21094 12.6094 3.75781L10.5 5.94531L8.39062 3.75781C7.81771 3.1849 7.08854 2.82031 6.20312 2.66406C5.31771 2.50781 4.45833 2.74219 3.625 3.36719C2.76562 4.17448 2.34896 5.09896 2.375 6.14062C2.40104 7.18229 2.73958 8.05469 3.39062 8.75781L10.5 16.1016L17.6094 8.75781Z" fill="currentColor" />
  </symbol>
  <symbol id="aip-bookmark" viewBox="0 0 15 20" xmlns="http://www.w3.org/2000/svg">
    <path d="M13.125 0H1.875C0.820312 0 0 0.859375 0 1.875V20L7.5 15.625L15 20V1.875C15 0.859375 14.1406 0 13.125 0ZM13.125 16.7578L7.5 13.4766L1.875 16.7578V2.10938C1.875 1.99219 1.95312 1.875 2.10938 1.875H12.8906C13.0078 1.875 13.125 1.99219 13.125 2.10938V16.7578Z" fill="currentColor" />
  </symbol>
  <symbol id="aip-pencil" viewBox="0 0 15 15" xmlns="http://www.w3.org/2000/svg">
    <path d="M14.4805 2.28125C14.8268 2.64583 15 3.05599 15 3.51172C15 3.98568 14.8268 4.40495 14.4805 4.76953L5.34766 13.9023C5.29297 13.957 5.22005 13.9935 5.12891 14.0117L1.51953 14.75C1.5013 14.75 1.47396 14.75 1.4375 14.75C1.1276 14.7135 0.981771 14.5312 1 14.2031L1.73828 10.5938C1.75651 10.5208 1.79297 10.4479 1.84766 10.375L10.9805 1.26953C11.3451 0.923177 11.7643 0.75 12.2383 0.75C12.694 0.75 13.1042 0.923177 13.4688 1.26953L14.4805 2.28125ZM4.60938 12.7812L5.26562 12.125H3.625V10.4844L2.96875 11.1406L2.55859 13.1914L4.60938 12.7812ZM4.9375 10.8125H6.57812L11.418 6L9.77734 4.35938L4.9375 9.17188V10.8125Z" fill="currentColor" />
  </symbol>
  <symbol id="aip-share" viewBox="0 0 19 18" xmlns="http://www.w3.org/2000/svg">
    <path d="M14.875 11.5C13.8594 11.526 13.0391 11.9297 12.4141 12.7109L6.59375 9.82031C6.69792 9.53385 6.75 9.26042 6.75 9C6.75 8.71354 6.69792 8.4401 6.59375 8.17969L12.4141 5.28906C13.0391 6.07031 13.8594 6.47396 14.875 6.5C15.7604 6.47396 16.5026 6.17448 17.1016 5.60156C17.6745 5.0026 17.974 4.26042 18 3.375C17.974 2.48958 17.6745 1.7474 17.1016 1.14844C16.5026 0.575521 15.7604 0.276042 14.875 0.25C13.9896 0.276042 13.2474 0.575521 12.6484 1.14844C12.0755 1.7474 11.776 2.48958 11.75 3.375C11.75 3.66146 11.7891 3.9349 11.8672 4.19531L6.08594 7.08594C5.46094 6.30469 4.64062 5.90104 3.625 5.875C2.73958 5.90104 1.9974 6.20052 1.39844 6.77344C0.825521 7.3724 0.526042 8.11458 0.5 9C0.526042 9.88542 0.825521 10.6276 1.39844 11.2266C1.9974 11.7995 2.73958 12.099 3.625 12.125C4.64062 12.099 5.46094 11.6953 6.08594 10.9141L11.8672 13.8047C11.7891 14.0651 11.75 14.3385 11.75 14.625C11.776 15.5104 12.0755 16.2526 12.6484 16.8516C13.2474 17.4245 13.9896 17.724 14.875 17.75C15.7604 17.724 16.5026 17.4245 17.1016 16.8516C17.6745 16.2526 17.974 15.5104 18 14.625C17.974 13.7396 17.6745 12.9974 17.1016 12.3984C16.5026 11.8255 15.7604 11.526 14.875 11.5ZM14.875 1.5C15.3958 1.52604 15.8385 1.70833 16.2031 2.04688C16.5417 2.41146 16.724 2.85417 16.75 3.375C16.724 3.89583 16.5417 4.33854 16.2031 4.70312C15.8385 5.04167 15.3958 5.22396 14.875 5.25C14.3542 5.22396 13.9115 5.04167 13.5469 4.70312C13.2083 4.33854 13.026 3.89583 13 3.375C13.026 2.85417 13.2083 2.41146 13.5469 2.04688C13.9115 1.70833 14.3542 1.52604 14.875 1.5ZM3.625 10.875C3.10417 10.849 2.66146 10.6667 2.29688 10.3281C1.95833 9.96354 1.77604 9.52083 1.75 9C1.77604 8.47917 1.95833 8.03646 2.29688 7.67188C2.66146 7.33333 3.10417 7.15104 3.625 7.125C4.14583 7.15104 4.58854 7.33333 4.95312 7.67188C5.29167 8.03646 5.47396 8.47917 5.5 9C5.47396 9.52083 5.29167 9.96354 4.95312 10.3281C4.58854 10.6667 4.14583 10.849 3.625 10.875ZM14.875 16.5C14.3542 16.474 13.9115 16.2917 13.5469 15.9531C13.2083 15.5885 13.026 15.1458 13 14.625C13.026 14.1042 13.2083 13.6615 13.5469 13.2969C13.9115 12.9583 14.3542 12.776 14.875 12.75C15.3958 12.776 15.8385 12.9583 16.2031 13.2969C16.5417 13.6615 16.724 14.1042 16.75 14.625C16.724 15.1458 16.5417 15.5885 16.2031 15.9531C15.8385 16.2917 15.3958 16.474 14.875 16.5Z" stroke="currentColor" fill="currentColor" stroke-width="0.5"/>
  </symbol>
  <symbol id="aip-fill-heart" viewBox="0 0 21 19" xmlns="http://www.w3.org/2000/svg">
    <path d="M18.9375 10.0859L11.3984 17.8594C11.138 18.1198 10.8385 18.25 10.5 18.25C10.1615 18.25 9.86198 18.1198 9.60156 17.8594L2.0625 10.0859C0.96875 8.88802 0.447917 7.50781 0.5 5.94531C0.552083 4.40885 1.1901 3.08073 2.41406 1.96094C3.53385 1.04948 4.77083 0.645833 6.125 0.75C7.50521 0.880208 8.70312 1.45312 9.71875 2.46875L10.5 3.25L11.2812 2.46875C12.2969 1.45312 13.4818 0.880208 14.8359 0.75C16.2161 0.645833 17.4661 1.04948 18.5859 1.96094C19.8099 3.08073 20.4479 4.40885 20.5 5.94531C20.5521 7.48177 20.0312 8.86198 18.9375 10.0859Z" fill="currentColor"/>
  </symbol>
  <symbol id="aip-chevron-down" viewBox="0 0 15 8" xmlns="http://www.w3.org/2000/svg">
    <path d="M6.85684 7.74493C6.94127 7.82532 7.04153 7.88909 7.15189 7.9326C7.26225 7.97612 7.38055 7.99851 7.50002 7.99851C7.61949 7.99851 7.73778 7.97612 7.84815 7.9326C7.95851 7.88909 8.05877 7.82532 8.1432 7.74493L14.7341 1.47635C14.9047 1.31411 15.0005 1.09407 15.0005 0.864624C15.0005 0.635182 14.9047 0.415137 14.7341 0.252897C14.5635 0.0906571 14.3322 -0.000488276 14.0909 -0.000488281C13.8497 -0.000488287 13.6183 0.0906571 13.4477 0.252897L7.50002 5.90975L1.55229 0.252897C1.38171 0.0906571 1.15035 -0.000488285 0.909108 -0.000488281C0.667868 -0.000488278 0.436509 0.0906571 0.265926 0.252897C0.0953439 0.415137 -0.000488278 0.635182 -0.000488281 0.864624C-0.000488285 1.09407 0.0953439 1.31411 0.265926 1.47635L6.85684 7.74493Z" fill="currentColor" />
  </symbol>
  <symbol id="aip-chevron-up" viewBox="0 0 18 10" xmlns="http://www.w3.org/2000/svg">
    <path d="M8.22781 0.319207C8.32913 0.218719 8.44944 0.139001 8.58188 0.0846109C8.71431 0.030221 8.85627 0.00222683 8.99963 0.00222683C9.14299 0.00222683 9.28495 0.030221 9.41738 0.0846109C9.54982 0.139001 9.67013 0.218719 9.77145 0.319207L17.6805 8.15493C17.8852 8.35773 18.0002 8.63278 18.0002 8.91959C18.0002 9.20639 17.8852 9.48144 17.6805 9.68424C17.4758 9.88704 17.1982 10.001 16.9087 10.001C16.6192 10.001 16.3416 9.88704 16.1369 9.68424L8.99963 2.61318L1.86236 9.68424C1.65766 9.88704 1.38003 10.001 1.09054 10.001C0.801051 10.001 0.52342 9.88704 0.318721 9.68424C0.114022 9.48144 -0.000976558 9.20639 -0.000976562 8.91959C-0.000976567 8.63278 0.114022 8.35773 0.318721 8.15493L8.22781 0.319207Z" fill="currentColor" />
  </symbol>
  <symbol id="aip-share-arrow-left" viewBox="0 0 20 8" xmlns="http://www.w3.org/2000/svg">
    <path fill-rule="evenodd" clip-rule="evenodd" d="M19.5 2.69336C19.7761 2.69336 20 2.91722 20 3.19336V7.19336C20 7.4695 19.7761 7.69336 19.5 7.69336C19.2239 7.69336 19 7.4695 19 7.19336V3.19336C19 2.91722 19.2239 2.69336 19.5 2.69336Z" fill="currentColor"/>
    <path fill-rule="evenodd" clip-rule="evenodd" d="M5.5 6.08014L0.5 3.19339L5.5 0.306641V2.69339L19.5 2.69336C19.7761 2.69336 20 2.91722 20 3.19336C20 3.4695 19.7761 3.69339 19.5 3.69339H5.5V6.08014Z" fill="currentColor"/>
  </symbol>
  <symbol id="aip-share-arrow-right" viewBox="0 0 21 8" xmlns="http://www.w3.org/2000/svg">
    <path fill-rule="evenodd" clip-rule="evenodd" d="M2 2.5C1.72386 2.5 1.5 2.72386 1.5 3V7C1.5 7.27614 1.72386 7.5 2 7.5C2.27614 7.5 2.5 7.27614 2.5 7V3C2.5 2.72386 2.27614 2.5 2 2.5Z" fill="currentColor"/>
    <path fill-rule="evenodd" clip-rule="evenodd" d="M16 5.88678L21 3.00003L16 0.113281V2.50003L2 2.5C1.72386 2.5 1.5 2.72386 1.5 3C1.5 3.27614 1.72386 3.50003 2 3.50003H16V5.88678Z" fill="currentColor"/>
  </symbol>
  <symbol id="aip-arrow-top" viewBox="0 0 11 13" xmlns="http://www.w3.org/2000/svg">
    <path d="M0.691406 5.03125L5.28516 0.21875C5.41276 0.0729167 5.56771 0 5.75 0C5.93229 0 6.08724 0.0638021 6.21484 0.191406L10.8086 5.00391C11.0638 5.33203 11.0638 5.64193 10.8086 5.93359C10.4805 6.1888 10.1706 6.1888 9.87891 5.93359L6.40625 2.29688V11.5938C6.36979 11.9766 6.16016 12.1862 5.77734 12.2227C5.59505 12.2227 5.4401 12.168 5.3125 12.0586C5.16667 11.931 5.09375 11.776 5.09375 11.5938V2.29688L1.62109 5.93359C1.32943 6.1888 1.01953 6.1888 0.691406 5.93359C0.436198 5.64193 0.436198 5.34115 0.691406 5.03125Z" fill="currentColor" />
  </symbol>
  <symbol id="aip-user" viewBox="0 0 15 16" xmlns="http://www.w3.org/2000/svg">
    <path d="M1 15C1.08099 14.7248 1.68439 12.9996 2.40273 12.8309M14 15C13.698 14.316 13.1875 13.2253 12.5781 12.8309M2.21824 12.9376C2.33868 12.8361 2.46812 12.743 2.61215 12.6673L5.06661 11.3761C5.38851 11.2067 5.58904 10.8813 5.58935 10.5281V9.55816C5.58935 9.55816 4.86918 8.72715 4.59416 7.57254C4.14715 7.29619 4.04941 6.54451 4.14715 5.7522C4.14715 5.5187 4.36311 5.27303 4.59416 5.21979C4.59416 5.21979 4.4784 4.10173 4.48861 3.72044C4.50204 3.21916 4.36798 1.97208 6.41068 1.43967C6.65265 1.3766 6.59744 1.03656 6.76306 1.01375C7.31515 0.937696 8.08401 1.19828 8.3641 1.27994C10.5554 1.91884 10.5724 3.29451 10.5724 3.72044C10.5724 4.15069 10.4961 5.21979 10.4961 5.21979C10.6634 5.36587 10.8167 5.48599 10.8167 5.84317C10.8167 6.45142 10.8167 7.50915 10.2313 7.66205C10.0435 8.22514 9.7725 8.76188 9.41428 9.24983C9.32395 9.37286 9.23952 9.47704 9.16564 9.55816V10.5526C9.16564 10.9187 9.38014 11.2534 9.71973 11.4172L12.348 12.6843C12.5063 12.7604 12.6491 12.8568 12.7807 12.9639" stroke="currentColor" fill="none" stroke-width="1.2" stroke-linecap="round"/>
  </symbol>
  <symbol id="aip-stream" viewBox="0 0 18 12" xmlns="http://www.w3.org/2000/svg">
    <path d="M1.14307 1H13.1431" stroke="currentColor" stroke-linecap="round"/>
    <path d="M1.14307 6H16.6431" stroke="currentColor" stroke-linecap="round"/>
    <path d="M1.14307 11H13.1431" stroke="currentColor" stroke-linecap="round"/>
  </symbol>
  <symbol id="aip-bell" viewBox="0 0 17 16" xmlns="http://www.w3.org/2000/svg">
    <path d="M14.8169 10.4688C15.2752 10.9271 15.4002 11.4688 15.1919 12.0938C14.9211 12.6562 14.4523 12.9583 13.7856 13H2.78564C2.11898 12.9792 1.63981 12.6667 1.34814 12.0625C1.13981 11.4583 1.26481 10.9271 1.72314 10.4688C2.16064 10.0938 2.52523 9.58333 2.81689 8.9375C3.10856 8.29167 3.25439 7.25 3.25439 5.8125C3.29606 4.54167 3.73356 3.46875 4.56689 2.59375C5.42106 1.71875 6.49398 1.20833 7.78564 1.0625V0.5C7.80648 0.1875 7.97314 0.0208333 8.28564 0C8.59814 0.0208333 8.76481 0.1875 8.78564 0.5V1.0625C10.0773 1.20833 11.1398 1.71875 11.9731 2.59375C12.8273 3.46875 13.2648 4.54167 13.2856 5.8125C13.2856 7.25 13.4315 8.29167 13.7231 8.9375C14.0148 9.58333 14.3794 10.0938 14.8169 10.4688ZM13.7856 12C14.0148 11.9792 14.1711 11.8854 14.2544 11.7188C14.3377 11.5312 14.2961 11.3542 14.1294 11.1875C13.5877 10.7083 13.1502 10.0729 12.8169 9.28125C12.4627 8.51042 12.2856 7.35417 12.2856 5.8125C12.2648 4.72917 11.8794 3.83333 11.1294 3.125C10.3586 2.39583 9.41064 2.02083 8.28564 2C7.13981 2.02083 6.19189 2.39583 5.44189 3.125C4.69189 3.83333 4.30648 4.73958 4.28564 5.84375C4.28564 7.38542 4.10856 8.55208 3.75439 9.34375C3.42106 10.1146 2.98356 10.7396 2.44189 11.2188C2.27523 11.3646 2.23356 11.5312 2.31689 11.7188C2.40023 11.8854 2.55648 11.9792 2.78564 12H13.7856ZM9.78564 14C10.1606 14.0417 10.3065 14.25 10.2231 14.625C10.0773 15.0208 9.83773 15.3438 9.50439 15.5938C9.15023 15.8646 8.73356 16 8.25439 16C7.79606 16 7.38981 15.8646 7.03564 15.5938C6.70231 15.3438 6.46273 15.0208 6.31689 14.625C6.27523 14.4583 6.29606 14.3125 6.37939 14.1875C6.48356 14.0625 6.61898 14 6.78564 14C7.03564 14 7.20231 14.1146 7.28564 14.3438C7.45231 14.7604 7.77523 14.9792 8.25439 15C8.75439 14.9792 9.08773 14.7604 9.25439 14.3438C9.35856 14.1146 9.53564 14 9.78564 14Z" fill="currentColor"/>
  </symbol>
  <symbol id="aip-envelope" viewBox="0 0 17 16" xmlns="http://www.w3.org/2000/svg">
    <path d="M13.5537 1.75C14.0811 1.76953 14.5205 1.95508 14.8721 2.30664C15.2236 2.6582 15.4092 3.09766 15.4287 3.625V11.125C15.4092 11.6523 15.2236 12.0918 14.8721 12.4434C14.5205 12.7949 14.0811 12.9805 13.5537 13H2.30371C1.77637 12.9805 1.33691 12.7949 0.985352 12.4434C0.633789 12.0918 0.448242 11.6523 0.428711 11.125V3.625C0.448242 3.09766 0.633789 2.6582 0.985352 2.30664C1.33691 1.95508 1.77637 1.76953 2.30371 1.75H13.5537ZM2.30371 2.6875C2.03027 2.6875 1.80566 2.77539 1.62988 2.95117C1.4541 3.12695 1.36621 3.35156 1.36621 3.625V4.67969L7.0791 8.95703C7.33301 9.15234 7.61621 9.25 7.92871 9.25C8.24121 9.25 8.52441 9.15234 8.77832 8.95703L14.4912 4.67969V3.625C14.4912 3.35156 14.4033 3.12695 14.2275 2.95117C14.0518 2.77539 13.8271 2.6875 13.5537 2.6875H2.30371ZM14.4912 11.125V5.82227L9.33496 9.71875C8.90527 10.0312 8.43652 10.1875 7.92871 10.1875C7.4209 10.1875 6.95215 10.0312 6.52246 9.71875L1.36621 5.82227V11.125C1.36621 11.3984 1.4541 11.623 1.62988 11.7988C1.80566 11.9746 2.03027 12.0625 2.30371 12.0625H13.5537C13.8271 12.0625 14.0518 11.9746 14.2275 11.7988C14.4033 11.623 14.4912 11.3984 14.4912 11.125Z" fill="currentColor"/>
  </symbol>
  <symbol id="aip-certificate" viewBox="0 0 15 16" xmlns="http://www.w3.org/2000/svg">
    <path  d="M14.2805 8.43724C14.6815 8.87474 14.8091 9.3487 14.6633 9.85911C14.5357 10.3695 14.1894 10.7159 13.6243 10.8982L12.9953 11.0622L13.1868 11.6638C13.3144 12.2471 13.1868 12.7211 12.8039 13.0857C12.4211 13.4685 11.9472 13.5961 11.3821 13.4685L10.7805 13.2771L10.6164 13.906C10.4341 14.4711 10.0878 14.8174 9.57738 14.9451C9.04873 15.0909 8.57477 14.9633 8.1555 14.5622L7.718 14.0974L7.2805 14.5622C6.843 14.9633 6.36904 15.0909 5.85863 14.9451C5.34821 14.8174 5.00186 14.4711 4.81956 13.906L4.6555 13.2771L4.05394 13.4685C3.48883 13.5961 3.01488 13.4685 2.63206 13.0857C2.24925 12.7211 2.12165 12.2471 2.24925 11.6638L2.44066 11.0349L1.81175 10.8982C1.24665 10.7159 0.900293 10.3695 0.772689 9.85911C0.626855 9.3487 0.75446 8.87474 1.1555 8.43724L1.62035 7.99974L1.1555 7.56224C0.75446 7.12474 0.626855 6.65078 0.772689 6.14036C0.900293 5.62995 1.24665 5.28359 1.81175 5.1013L2.44066 4.93724L2.24925 4.33568C2.12165 3.75234 2.24925 3.27839 2.63206 2.9138C3.01488 2.53099 3.48883 2.40339 4.05394 2.53099L4.6555 2.7224L4.81956 2.09349C5.00186 1.52839 5.34821 1.18203 5.85863 1.05443C6.36904 0.908594 6.843 1.0362 7.2805 1.43724L7.718 1.90208L8.1555 1.43724C8.593 1.0362 9.06696 0.908594 9.57738 1.05443C10.0878 1.18203 10.4341 1.52839 10.6164 2.09349L10.7532 2.7224L11.3821 2.53099C11.9472 2.40339 12.4211 2.53099 12.8039 2.9138C13.1868 3.27839 13.3144 3.75234 13.1868 4.33568L12.9953 4.93724L13.6243 5.1013C14.1894 5.28359 14.5357 5.62995 14.6633 6.14036C14.8091 6.65078 14.6815 7.12474 14.2805 7.56224L13.8157 7.99974L14.2805 8.43724ZM13.4055 10.0505C13.6243 9.9776 13.761 9.84089 13.8157 9.64036C13.8703 9.43984 13.8248 9.24844 13.6789 9.06615L12.5578 7.99974L13.6789 6.93333C13.8248 6.75104 13.8703 6.55964 13.8157 6.35911C13.761 6.15859 13.6243 6.02187 13.4055 5.94896L11.9016 5.56615L12.3391 4.08958C12.3938 3.87083 12.3391 3.68854 12.175 3.54271C12.0292 3.37865 11.8469 3.32396 11.6282 3.37865L10.1516 3.81615L9.76878 2.31224C9.69587 2.09349 9.55915 1.95677 9.35863 1.90208C9.15811 1.8474 8.9667 1.89297 8.78441 2.0388L7.718 3.1599L6.6516 2.0388C6.48753 1.89297 6.29613 1.8474 6.07738 1.90208C5.87686 1.95677 5.74014 2.09349 5.66722 2.31224L5.28441 3.81615L3.80785 3.37865C3.5891 3.32396 3.4068 3.37865 3.26097 3.54271C3.09691 3.68854 3.04222 3.87083 3.09691 4.08958L3.53441 5.56615L2.0305 5.94896C1.81175 6.02187 1.67503 6.15859 1.62035 6.35911C1.56566 6.55964 1.61123 6.75104 1.75706 6.93333L2.87816 7.99974L1.75706 9.06615C1.61123 9.24844 1.56566 9.43984 1.62035 9.64036C1.67503 9.84089 1.81175 9.9776 2.0305 10.0505L3.53441 10.4333L3.09691 11.9099C3.04222 12.1286 3.09691 12.3109 3.26097 12.4568C3.4068 12.6208 3.5891 12.6755 3.80785 12.6208L5.28441 12.1833L5.66722 13.6872C5.74014 13.9242 5.87686 14.0609 6.07738 14.0974C6.29613 14.1521 6.48753 14.1065 6.6516 13.9607L7.718 12.8396L8.78441 13.9333C8.94847 14.0974 9.13988 14.1521 9.35863 14.0974C9.55915 14.0427 9.69587 13.906 9.76878 13.6872L10.1516 12.1833L11.6282 12.6208C11.8469 12.6755 12.0292 12.6208 12.175 12.4568C12.3391 12.3109 12.3938 12.1286 12.3391 11.9099L11.9016 10.4333L13.4055 10.0505Z" fill="currentColor"/>
  </symbol>
  <symbol id="aip-cog" viewBox="0 0 16 12" xmlns="http://www.w3.org/2000/svg">
    <path d="M0.856934 2H14.8569" stroke="currentColor" stroke-linecap="round"/>
    <circle cx="4.85693" cy="2" r="1.5" fill="none" stroke="currentColor"/>
    <path d="M0.856934 6H14.8569" stroke="currentColor" stroke-linecap="round"/>
    <circle cx="10.8569" cy="6" r="1.5" fill="none" stroke="currentColor"/>
    <path d="M0.856934 10H14.8569" stroke="currentColor" stroke-linecap="round"/>
    <circle cx="4.85693" cy="10" r="1.5" fill="none" stroke="currentColor"/>
  </symbol>
  <symbol id="aip-user-plus" viewBox="0 0 24 18" xmlns="http://www.w3.org/2000/svg">
    <path d="M0.571289 17C0.658507 16.6855 1.30832 14.7138 2.08192 14.5211M14.5713 17C14.2461 16.2182 13.6963 14.9718 13.04 14.5211M1.88324 14.643C2.01294 14.527 2.15234 14.4206 2.30745 14.334L4.95071 12.8585C5.29737 12.6648 5.51333 12.2929 5.51366 11.8892V10.7808C5.51366 10.7808 4.7381 9.83103 4.44192 8.51148C3.96053 8.19564 3.85527 7.33658 3.96053 6.43108C3.96053 6.16423 4.1931 5.88346 4.44192 5.82261C4.44192 5.82261 4.31726 4.54483 4.32826 4.10907C4.34272 3.53618 4.19835 2.11095 6.39818 1.50248C6.65876 1.4304 6.5993 1.04178 6.77767 1.01571C7.37221 0.928796 8.20022 1.22661 8.50186 1.31994C10.8617 2.0501 10.8801 3.6223 10.8801 4.10907C10.8801 4.60079 10.7978 5.82261 10.7978 5.82261C10.978 5.98957 11.1432 6.12685 11.1432 6.53505C11.1432 7.2302 11.1432 8.43903 10.5127 8.61377C10.3104 9.2573 10.0186 9.87072 9.63282 10.4284C9.53554 10.569 9.44462 10.688 9.36506 10.7808V11.9173C9.36506 12.3357 9.59605 12.7182 9.96177 12.9053L12.7922 14.3535C12.9627 14.4404 13.1165 14.5506 13.2582 14.6731" stroke="currentColor" stroke-linecap="round"/>
    <path d="M14.5713 7.5C14.5713 7.22386 14.7951 7 15.0713 7H23.0713C23.3474 7 23.5713 7.22386 23.5713 7.5C23.5713 7.77614 23.3474 8 23.0713 8H15.0713C14.7951 8 14.5713 7.77614 14.5713 7.5Z" fill="currentColor"/>
    <path d="M19.0713 3C19.3474 3 19.5713 3.22386 19.5713 3.5L19.5713 11.5C19.5713 11.7761 19.3474 12 19.0713 12C18.7951 12 18.5713 11.7761 18.5713 11.5L18.5713 3.5C18.5713 3.22386 18.7951 3 19.0713 3Z" fill="currentColor"/>
  </symbol>
  <symbol id="aip-sign-out-alt" viewBox="0 0 15 14" xmlns="http://www.w3.org/2000/svg">
    <path d="M6 0.890625H4C2.34315 0.890625 1 2.23377 1 3.89062V9.89062C1 11.5475 2.34315 12.8906 4 12.8906H6" stroke-width="1" stroke="currentColor" stroke-linecap="round"/>
    <path d="M6 6.39062C5.72386 6.39062 5.5 6.61448 5.5 6.89062C5.5 7.16677 5.72386 7.39062 6 7.39062V6.39062ZM14.3536 7.24418C14.5488 7.04892 14.5488 6.73233 14.3536 6.53707L11.1716 3.35509C10.9763 3.15983 10.6597 3.15983 10.4645 3.35509C10.2692 3.55035 10.2692 3.86694 10.4645 4.0622L13.2929 6.89062L10.4645 9.71905C10.2692 9.91431 10.2692 10.2309 10.4645 10.4262C10.6597 10.6214 10.9763 10.6214 11.1716 10.4262L14.3536 7.24418ZM6 7.39062H14V6.39062H6V7.39062Z" fill="currentColor"/>
  </symbol>
  <symbol id="aip-toggle-off" viewBox="0 0 16 10" xmlns="http://www.w3.org/2000/svg">
    <rect x="1" y="0.890625" width="14" height="8" rx="4" stroke-width="1" stroke="currentColor"/>
    <circle cx="5" cy="4.89062" r="1.5" stroke-width="1" stroke="currentColor"/>
  </symbol>
  <symbol id="aip-discourse-other-tab" viewBox="0 0 21 21" fill="none" xmlns="http://www.w3.org/2000/svg">
    <rect x="1.5127" y="12.5" width="7" height="7" stroke="currentColor" stroke-width="1.5" stroke-linejoin="round"/>
    <rect x="11.5127" y="12.5" width="7" height="7" stroke="currentColor" stroke-width="1.5" stroke-linejoin="round"/>
    <rect x="1.5127" y="2.5" width="7" height="7" stroke="currentColor" stroke-width="1.5" stroke-linejoin="round"/>
    <rect x="15.0127" y="1" width="6.32846" height="6.32846" transform="rotate(45 15.0127 1)" stroke="currentColor" stroke-width="1.5" stroke-linejoin="round"/>
  </symbol> 
  <symbol id="aip-d-tracking" viewBox="0 0 17 18" fill="none" xmlns="http://www.w3.org/2000/svg">
    <path d="M15.5762 12.5195C15.7754 12.7409 15.875 12.9844 15.875 13.25C15.875 13.5378 15.7754 13.7812 15.5762 13.9805C15.377 14.2018 15.1224 14.3125 14.8125 14.3125H2.0625C1.7526 14.3125 1.49805 14.2018 1.29883 13.9805C1.09961 13.7812 1 13.5378 1 13.25C1 12.9844 1.09961 12.7409 1.29883 12.5195C1.32096 12.4753 1.36523 12.431 1.43164 12.3867C1.78581 12.0768 2.15104 11.5566 2.52734 10.8262C2.90365 10.0957 3.10286 8.95573 3.125 7.40625C3.14714 6.10026 3.55664 4.98242 4.35352 4.05273C5.12825 3.12305 6.13542 2.52539 7.375 2.25977V1.5625C7.375 1.2526 7.47461 0.998047 7.67383 0.798828C7.87305 0.599609 8.1276 0.5 8.4375 0.5C8.7474 0.5 9.00195 0.599609 9.20117 0.798828C9.40039 0.998047 9.5 1.2526 9.5 1.5625V2.25977C10.7396 2.52539 11.7578 3.12305 12.5547 4.05273C13.3294 4.98242 13.7279 6.10026 13.75 7.40625C13.7721 8.95573 13.9714 10.0957 14.3477 10.8262C14.724 11.5566 15.1003 12.0768 15.4766 12.3867C15.5208 12.431 15.554 12.4753 15.5762 12.5195ZM3.25781 12.7188H13.6504C13.2741 12.276 12.931 11.6341 12.6211 10.793C12.3333 9.95182 12.1784 8.83398 12.1562 7.43945V7.40625C12.1341 6.34375 11.7689 5.4694 11.0605 4.7832C10.3743 4.07487 9.5 3.70964 8.4375 3.6875C7.375 3.70964 6.50065 4.07487 5.81445 4.7832C5.10612 5.4694 4.74089 6.34375 4.71875 7.40625V7.43945C4.69661 8.83398 4.54167 9.95182 4.25391 10.793C3.94401 11.6341 3.61198 12.276 3.25781 12.7188ZM8.4043 17.5C7.82878 17.4779 7.3418 17.2676 6.94336 16.8691C6.54492 16.4707 6.33464 15.9727 6.3125 15.375H10.5625C10.5404 15.9727 10.3301 16.4707 9.93164 16.8691C9.5332 17.2676 9.02409 17.4779 8.4043 17.5Z" fill="currentColor"/>
  </symbol> 
  <symbol id="aip-person" fill="#9694AF" width="20" height="20" viewBox="0 0 20 20" fill="none" xmlns="http://www.w3.org/2000/svg">  
    <path fill-rule="evenodd" clip-rule="evenodd" d="M3.22112 16.6673L6.62496 14.8229C7.07137 14.5808 7.34947 14.116 7.3499 13.6114V12.2258C7.3499 12.2258 6.35117 11.0387 5.96976 9.38923C5.34986 8.99445 5.21431 7.92063 5.34986 6.78877C5.34986 6.45521 5.64935 6.10425 5.96976 6.0282C5.96976 6.0282 5.80923 4.43098 5.8234 3.8863C5.82462 3.83947 5.82496 3.7881 5.82533 3.73275C5.83062 2.94159 5.84133 1.33894 8.48893 0.628088C8.67045 0.579352 8.73137 0.414831 8.78541 0.268896C8.83127 0.145055 8.87217 0.0345981 8.97761 0.0196366C9.66487 -0.0778845 10.5944 0.212089 11.0584 0.35685C11.1113 0.373356 11.1582 0.387975 11.1979 0.399915C14.2368 1.31261 14.2604 3.27783 14.2604 3.8863C14.2604 4.50094 14.1546 6.0282 14.1546 6.0282C14.1629 6.0357 14.1712 6.04315 14.1795 6.05057C14.4016 6.24966 14.5993 6.42682 14.5993 6.91873C14.5993 7.78765 14.5993 9.29868 13.7874 9.5171C13.5269 10.3215 13.1511 11.0883 12.6543 11.7853C12.5291 11.9611 12.412 12.1099 12.3095 12.2258V13.6464C12.3095 14.1695 12.607 14.6476 13.0779 14.8815L16.7228 16.6917C16.9424 16.8003 17.1404 16.938 17.3229 17.0911C17.316 17.0969 17.309 17.1026 17.302 17.1084C18.0317 17.7836 18.6387 19.1246 19.0138 19.9997H18.1687H0.985352C1.09311 19.6226 1.86776 17.3386 2.81026 16.9411C2.93833 16.8398 3.07425 16.7469 3.22112 16.6673Z" fill="#9694AF"/>
  </symbol> 
</svg>