<?xml version="1.0" encoding="UTF-8"?>
<svg xmlns="http://www.w3.org/2000/svg" style="display: none;">
  <symbol id="aip-far-heart" viewBox="0 0 21 19" xmlns="http://www.w3.org/2000/svg">
    <path d="M18.5469 1.96094C19.7708 3.08073 20.4219 4.40885 20.5 5.94531C20.5521 7.48177 20.0312 8.84896 18.9375 10.0469L11.3984 17.8594C11.138 18.1198 10.8385 18.25 10.5 18.25C10.1615 18.25 9.86198 18.1198 9.60156 17.8594L2.0625 10.0469C0.96875 8.875 0.447917 7.50781 0.5 5.94531C0.552083 4.40885 1.1901 3.08073 2.41406 1.96094C3.40365 1.15365 4.4974 0.75 5.69531 0.75C7.23177 0.776042 8.57292 1.34896 9.71875 2.46875L10.5 3.25L11.2812 2.46875C12.4271 1.34896 13.7682 0.776042 15.3047 0.75C16.5286 0.723958 17.6094 1.1276 18.5469 1.96094ZM17.6094 8.75781C18.2604 8.05469 18.599 7.18229 18.625 6.14062C18.651 5.09896 18.2344 4.17448 17.375 3.36719C16.5417 2.71615 15.6823 2.48177 14.7969 2.66406C13.8854 2.84635 13.1562 3.21094 12.6094 3.75781L10.5 5.94531L8.39062 3.75781C7.81771 3.1849 7.08854 2.82031 6.20312 2.66406C5.31771 2.50781 4.45833 2.74219 3.625 3.36719C2.76562 4.17448 2.34896 5.09896 2.375 6.14062C2.40104 7.18229 2.73958 8.05469 3.39062 8.75781L10.5 16.1016L17.6094 8.75781Z" />
  </symbol>
  <symbol id="aip-bookmark" viewBox="0 0 15 20" xmlns="http://www.w3.org/2000/svg">
    <path d="M13.125 0H1.875C0.820312 0 0 0.859375 0 1.875V20L7.5 15.625L15 20V1.875C15 0.859375 14.1406 0 13.125 0ZM13.125 16.7578L7.5 13.4766L1.875 16.7578V2.10938C1.875 1.99219 1.95312 1.875 2.10938 1.875H12.8906C13.0078 1.875 13.125 1.99219 13.125 2.10938V16.7578Z" />
  </symbol>
  <symbol id="aip-pencil" viewBox="0 0 15 15" xmlns="http://www.w3.org/2000/svg">
    <path d="M14.4805 2.28125C14.8268 2.64583 15 3.05599 15 3.51172C15 3.98568 14.8268 4.40495 14.4805 4.76953L5.34766 13.9023C5.29297 13.957 5.22005 13.9935 5.12891 14.0117L1.51953 14.75C1.5013 14.75 1.47396 14.75 1.4375 14.75C1.1276 14.7135 0.981771 14.5312 1 14.2031L1.73828 10.5938C1.75651 10.5208 1.79297 10.4479 1.84766 10.375L10.9805 1.26953C11.3451 0.923177 11.7643 0.75 12.2383 0.75C12.694 0.75 13.1042 0.923177 13.4688 1.26953L14.4805 2.28125ZM4.60938 12.7812L5.26562 12.125H3.625V10.4844L2.96875 11.1406L2.55859 13.1914L4.60938 12.7812ZM4.9375 10.8125H6.57812L11.418 6L9.77734 4.35938L4.9375 9.17188V10.8125Z" />
  </symbol>
  <symbol id="aip-share" viewBox="0 0 19 18" xmlns="http://www.w3.org/2000/svg">
    <path d="M14.875 11.5C13.8594 11.526 13.0391 11.9297 12.4141 12.7109L6.59375 9.82031C6.69792 9.53385 6.75 9.26042 6.75 9C6.75 8.71354 6.69792 8.4401 6.59375 8.17969L12.4141 5.28906C13.0391 6.07031 13.8594 6.47396 14.875 6.5C15.7604 6.47396 16.5026 6.17448 17.1016 5.60156C17.6745 5.0026 17.974 4.26042 18 3.375C17.974 2.48958 17.6745 1.7474 17.1016 1.14844C16.5026 0.575521 15.7604 0.276042 14.875 0.25C13.9896 0.276042 13.2474 0.575521 12.6484 1.14844C12.0755 1.7474 11.776 2.48958 11.75 3.375C11.75 3.66146 11.7891 3.9349 11.8672 4.19531L6.08594 7.08594C5.46094 6.30469 4.64062 5.90104 3.625 5.875C2.73958 5.90104 1.9974 6.20052 1.39844 6.77344C0.825521 7.3724 0.526042 8.11458 0.5 9C0.526042 9.88542 0.825521 10.6276 1.39844 11.2266C1.9974 11.7995 2.73958 12.099 3.625 12.125C4.64062 12.099 5.46094 11.6953 6.08594 10.9141L11.8672 13.8047C11.7891 14.0651 11.75 14.3385 11.75 14.625C11.776 15.5104 12.0755 16.2526 12.6484 16.8516C13.2474 17.4245 13.9896 17.724 14.875 17.75C15.7604 17.724 16.5026 17.4245 17.1016 16.8516C17.6745 16.2526 17.974 15.5104 18 14.625C17.974 13.7396 17.6745 12.9974 17.1016 12.3984C16.5026 11.8255 15.7604 11.526 14.875 11.5ZM14.875 1.5C15.3958 1.52604 15.8385 1.70833 16.2031 2.04688C16.5417 2.41146 16.724 2.85417 16.75 3.375C16.724 3.89583 16.5417 4.33854 16.2031 4.70312C15.8385 5.04167 15.3958 5.22396 14.875 5.25C14.3542 5.22396 13.9115 5.04167 13.5469 4.70312C13.2083 4.33854 13.026 3.89583 13 3.375C13.026 2.85417 13.2083 2.41146 13.5469 2.04688C13.9115 1.70833 14.3542 1.52604 14.875 1.5ZM3.625 10.875C3.10417 10.849 2.66146 10.6667 2.29688 10.3281C1.95833 9.96354 1.77604 9.52083 1.75 9C1.77604 8.47917 1.95833 8.03646 2.29688 7.67188C2.66146 7.33333 3.10417 7.15104 3.625 7.125C4.14583 7.15104 4.58854 7.33333 4.95312 7.67188C5.29167 8.03646 5.47396 8.47917 5.5 9C5.47396 9.52083 5.29167 9.96354 4.95312 10.3281C4.58854 10.6667 4.14583 10.849 3.625 10.875ZM14.875 16.5C14.3542 16.474 13.9115 16.2917 13.5469 15.9531C13.2083 15.5885 13.026 15.1458 13 14.625C13.026 14.1042 13.2083 13.6615 13.5469 13.2969C13.9115 12.9583 14.3542 12.776 14.875 12.75C15.3958 12.776 15.8385 12.9583 16.2031 13.2969C16.5417 13.6615 16.724 14.1042 16.75 14.625C16.724 15.1458 16.5417 15.5885 16.2031 15.9531C15.8385 16.2917 15.3958 16.474 14.875 16.5Z" stroke="currentColor" fill="currentColor" stroke-width="0.5"/>
  </symbol>
  <symbol id="aip-fill-heart" viewBox="0 0 21 19" xmlns="http://www.w3.org/2000/svg">
    <path d="M18.9375 10.0859L11.3984 17.8594C11.138 18.1198 10.8385 18.25 10.5 18.25C10.1615 18.25 9.86198 18.1198 9.60156 17.8594L2.0625 10.0859C0.96875 8.88802 0.447917 7.50781 0.5 5.94531C0.552083 4.40885 1.1901 3.08073 2.41406 1.96094C3.53385 1.04948 4.77083 0.645833 6.125 0.75C7.50521 0.880208 8.70312 1.45312 9.71875 2.46875L10.5 3.25L11.2812 2.46875C12.2969 1.45312 13.4818 0.880208 14.8359 0.75C16.2161 0.645833 17.4661 1.04948 18.5859 1.96094C19.8099 3.08073 20.4479 4.40885 20.5 5.94531C20.5521 7.48177 20.0312 8.86198 18.9375 10.0859Z"/>
  </symbol>
  <symbol id="aip-chevron-down" viewBox="0 0 15 8" xmlns="http://www.w3.org/2000/svg">
    <path d="M6.85684 7.74493C6.94127 7.82532 7.04153 7.88909 7.15189 7.9326C7.26225 7.97612 7.38055 7.99851 7.50002 7.99851C7.61949 7.99851 7.73778 7.97612 7.84815 7.9326C7.95851 7.88909 8.05877 7.82532 8.1432 7.74493L14.7341 1.47635C14.9047 1.31411 15.0005 1.09407 15.0005 0.864624C15.0005 0.635182 14.9047 0.415137 14.7341 0.252897C14.5635 0.0906571 14.3322 -0.000488276 14.0909 -0.000488281C13.8497 -0.000488287 13.6183 0.0906571 13.4477 0.252897L7.50002 5.90975L1.55229 0.252897C1.38171 0.0906571 1.15035 -0.000488285 0.909108 -0.000488281C0.667868 -0.000488278 0.436509 0.0906571 0.265926 0.252897C0.0953439 0.415137 -0.000488278 0.635182 -0.000488281 0.864624C-0.000488285 1.09407 0.0953439 1.31411 0.265926 1.47635L6.85684 7.74493Z" />
  </symbol>
  <symbol id="aip-chevron-up" viewBox="0 0 18 10" xmlns="http://www.w3.org/2000/svg">
    <path d="M8.22781 0.319207C8.32913 0.218719 8.44944 0.139001 8.58188 0.0846109C8.71431 0.030221 8.85627 0.00222683 8.99963 0.00222683C9.14299 0.00222683 9.28495 0.030221 9.41738 0.0846109C9.54982 0.139001 9.67013 0.218719 9.77145 0.319207L17.6805 8.15493C17.8852 8.35773 18.0002 8.63278 18.0002 8.91959C18.0002 9.20639 17.8852 9.48144 17.6805 9.68424C17.4758 9.88704 17.1982 10.001 16.9087 10.001C16.6192 10.001 16.3416 9.88704 16.1369 9.68424L8.99963 2.61318L1.86236 9.68424C1.65766 9.88704 1.38003 10.001 1.09054 10.001C0.801051 10.001 0.52342 9.88704 0.318721 9.68424C0.114022 9.48144 -0.000976558 9.20639 -0.000976562 8.91959C-0.000976567 8.63278 0.114022 8.35773 0.318721 8.15493L8.22781 0.319207Z" />
  </symbol>
  <symbol id="aip-share-arrow-right" viewBox="0 0 21 8" xmlns="http://www.w3.org/2000/svg">
    <path fill-rule="evenodd" clip-rule="evenodd" d="M2 2.5C1.72386 2.5 1.5 2.72386 1.5 3V7C1.5 7.27614 1.72386 7.5 2 7.5C2.27614 7.5 2.5 7.27614 2.5 7V3C2.5 2.72386 2.27614 2.5 2 2.5Z" fill="currentColor"/>
    <path fill-rule="evenodd" clip-rule="evenodd" d="M16 5.88678L21 3.00003L16 0.113281V2.50003L2 2.5C1.72386 2.5 1.5 2.72386 1.5 3C1.5 3.27614 1.72386 3.50003 2 3.50003H16V5.88678Z" fill="currentColor"/>
  </symbol>
  <symbol id="aip-arrow-top" viewBox="0 0 11 13" xmlns="http://www.w3.org/2000/svg">
    <path d="M0.691406 5.03125L5.28516 0.21875C5.41276 0.0729167 5.56771 0 5.75 0C5.93229 0 6.08724 0.0638021 6.21484 0.191406L10.8086 5.00391C11.0638 5.33203 11.0638 5.64193 10.8086 5.93359C10.4805 6.1888 10.1706 6.1888 9.87891 5.93359L6.40625 2.29688V11.5938C6.36979 11.9766 6.16016 12.1862 5.77734 12.2227C5.59505 12.2227 5.4401 12.168 5.3125 12.0586C5.16667 11.931 5.09375 11.776 5.09375 11.5938V2.29688L1.62109 5.93359C1.32943 6.1888 1.01953 6.1888 0.691406 5.93359C0.436198 5.64193 0.436198 5.34115 0.691406 5.03125Z" />
  </symbol>
</svg>