<svg width="15" height="15" viewBox="0 0 15 15" fill="none" xmlns="http://www.w3.org/2000/svg">
<path d="M14.4805 2.28125C14.8268 2.64583 15 3.05599 15 3.51172C15 3.98568 14.8268 4.40495 14.4805 4.76953L5.34766 13.9023C5.29297 13.957 5.22005 13.9935 5.12891 14.0117L1.51953 14.75C1.5013 14.75 1.47396 14.75 1.4375 14.75C1.1276 14.7135 0.981771 14.5312 1 14.2031L1.73828 10.5938C1.75651 10.5208 1.79297 10.4479 1.84766 10.375L10.9805 1.26953C11.3451 0.923177 11.7643 0.75 12.2383 0.75C12.694 0.75 13.1042 0.923177 13.4688 1.26953L14.4805 2.28125ZM4.60938 12.7812L5.26562 12.125H3.625V10.4844L2.96875 11.1406L2.55859 13.1914L4.60938 12.7812ZM4.9375 10.8125H6.57812L11.418 6L9.77734 4.35938L4.9375 9.17188V10.8125Z" fill="#9694AF"/>
</svg>
