<svg width="19" height="18" viewBox="0 0 19 18" fill="none" xmlns="http://www.w3.org/2000/svg">
<path d="M14.875 11.5C13.8594 11.526 13.0391 11.9297 12.4141 12.7109L6.59375 9.82031C6.69792 9.53385 6.75 9.26042 6.75 9C6.75 8.71354 6.69792 8.4401 6.59375 8.17969L12.4141 5.28906C13.0391 6.07031 13.8594 6.47396 14.875 6.5C15.7604 6.47396 16.5026 6.17448 17.1016 5.60156C17.6745 5.0026 17.974 4.26042 18 3.375C17.974 2.48958 17.6745 1.7474 17.1016 1.14844C16.5026 0.575521 15.7604 0.276042 14.875 0.25C13.9896 0.276042 13.2474 0.575521 12.6484 1.14844C12.0755 1.7474 11.776 2.48958 11.75 3.375C11.75 3.66146 11.7891 3.9349 11.8672 4.19531L6.08594 7.08594C5.46094 6.30469 4.64062 5.90104 3.625 5.875C2.73958 5.90104 1.9974 6.20052 1.39844 6.77344C0.825521 7.3724 0.526042 8.11458 0.5 9C0.526042 9.88542 0.825521 10.6276 1.39844 11.2266C1.9974 11.7995 2.73958 12.099 3.625 12.125C4.64062 12.099 5.46094 11.6953 6.08594 10.9141L11.8672 13.8047C11.7891 14.0651 11.75 14.3385 11.75 14.625C11.776 15.5104 12.0755 16.2526 12.6484 16.8516C13.2474 17.4245 13.9896 17.724 14.875 17.75C15.7604 17.724 16.5026 17.4245 17.1016 16.8516C17.6745 16.2526 17.974 15.5104 18 14.625C17.974 13.7396 17.6745 12.9974 17.1016 12.3984C16.5026 11.8255 15.7604 11.526 14.875 11.5ZM14.875 1.5C15.3958 1.52604 15.8385 1.70833 16.2031 2.04688C16.5417 2.41146 16.724 2.85417 16.75 3.375C16.724 3.89583 16.5417 4.33854 16.2031 4.70312C15.8385 5.04167 15.3958 5.22396 14.875 5.25C14.3542 5.22396 13.9115 5.04167 13.5469 4.70312C13.2083 4.33854 13.026 3.89583 13 3.375C13.026 2.85417 13.2083 2.41146 13.5469 2.04688C13.9115 1.70833 14.3542 1.52604 14.875 1.5ZM3.625 10.875C3.10417 10.849 2.66146 10.6667 2.29688 10.3281C1.95833 9.96354 1.77604 9.52083 1.75 9C1.77604 8.47917 1.95833 8.03646 2.29688 7.67188C2.66146 7.33333 3.10417 7.15104 3.625 7.125C4.14583 7.15104 4.58854 7.33333 4.95312 7.67188C5.29167 8.03646 5.47396 8.47917 5.5 9C5.47396 9.52083 5.29167 9.96354 4.95312 10.3281C4.58854 10.6667 4.14583 10.849 3.625 10.875ZM14.875 16.5C14.3542 16.474 13.9115 16.2917 13.5469 15.9531C13.2083 15.5885 13.026 15.1458 13 14.625C13.026 14.1042 13.2083 13.6615 13.5469 13.2969C13.9115 12.9583 14.3542 12.776 14.875 12.75C15.3958 12.776 15.8385 12.9583 16.2031 13.2969C16.5417 13.6615 16.724 14.1042 16.75 14.625C16.724 15.1458 16.5417 15.5885 16.2031 15.9531C15.8385 16.2917 15.3958 16.474 14.875 16.5Z" fill="#605F71" stroke="#605F71" stroke-width="0.5"/>
</svg>
