<svg width="11" height="13" viewBox="0 0 11 13" fill="none" xmlns="http://www.w3.org/2000/svg">
<path d="M0.691406 5.03125L5.28516 0.21875C5.41276 0.0729167 5.56771 0 5.75 0C5.93229 0 6.08724 0.0638021 6.21484 0.191406L10.8086 5.00391C11.0638 5.33203 11.0638 5.64193 10.8086 5.93359C10.4805 6.1888 10.1706 6.1888 9.87891 5.93359L6.40625 2.29688V11.5938C6.36979 11.9766 6.16016 12.1862 5.77734 12.2227C5.59505 12.2227 5.4401 12.168 5.3125 12.0586C5.16667 11.931 5.09375 11.776 5.09375 11.5938V2.29688L1.62109 5.93359C1.32943 6.1888 1.01953 6.1888 0.691406 5.93359C0.436198 5.64193 0.436198 5.34115 0.691406 5.03125Z" />
</svg>
