<svg width="17" height="18" viewBox="0 0 17 18" fill="none" xmlns="http://www.w3.org/2000/svg">
<path d="M15.5762 12.5195C15.7754 12.7409 15.875 12.9844 15.875 13.25C15.875 13.5378 15.7754 13.7812 15.5762 13.9805C15.377 14.2018 15.1224 14.3125 14.8125 14.3125H2.0625C1.7526 14.3125 1.49805 14.2018 1.29883 13.9805C1.09961 13.7812 1 13.5378 1 13.25C1 12.9844 1.09961 12.7409 1.29883 12.5195C1.32096 12.4753 1.36523 12.431 1.43164 12.3867C1.78581 12.0768 2.15104 11.5566 2.52734 10.8262C2.90365 10.0957 3.10286 8.95573 3.125 7.40625C3.14714 6.10026 3.55664 4.98242 4.35352 4.05273C5.12825 3.12305 6.13542 2.52539 7.375 2.25977V1.5625C7.375 1.2526 7.47461 0.998047 7.67383 0.798828C7.87305 0.599609 8.1276 0.5 8.4375 0.5C8.7474 0.5 9.00195 0.599609 9.20117 0.798828C9.40039 0.998047 9.5 1.2526 9.5 1.5625V2.25977C10.7396 2.52539 11.7578 3.12305 12.5547 4.05273C13.3294 4.98242 13.7279 6.10026 13.75 7.40625C13.7721 8.95573 13.9714 10.0957 14.3477 10.8262C14.724 11.5566 15.1003 12.0768 15.4766 12.3867C15.5208 12.431 15.554 12.4753 15.5762 12.5195ZM3.25781 12.7188H13.6504C13.2741 12.276 12.931 11.6341 12.6211 10.793C12.3333 9.95182 12.1784 8.83398 12.1562 7.43945V7.40625C12.1341 6.34375 11.7689 5.4694 11.0605 4.7832C10.3743 4.07487 9.5 3.70964 8.4375 3.6875C7.375 3.70964 6.50065 4.07487 5.81445 4.7832C5.10612 5.4694 4.74089 6.34375 4.71875 7.40625V7.43945C4.69661 8.83398 4.54167 9.95182 4.25391 10.793C3.94401 11.6341 3.61198 12.276 3.25781 12.7188ZM8.4043 17.5C7.82878 17.4779 7.3418 17.2676 6.94336 16.8691C6.54492 16.4707 6.33464 15.9727 6.3125 15.375H10.5625C10.5404 15.9727 10.3301 16.4707 9.93164 16.8691C9.5332 17.2676 9.02409 17.4779 8.4043 17.5Z" fill="currentColor"/>
</svg>
