<svg width="15" height="16" viewBox="0 0 15 16" fill="none" xmlns="http://www.w3.org/2000/svg">
<path  d="M14.2805 8.43724C14.6815 8.87474 14.8091 9.3487 14.6633 9.85911C14.5357 10.3695 14.1894 10.7159 13.6243 10.8982L12.9953 11.0622L13.1868 11.6638C13.3144 12.2471 13.1868 12.7211 12.8039 13.0857C12.4211 13.4685 11.9472 13.5961 11.3821 13.4685L10.7805 13.2771L10.6164 13.906C10.4341 14.4711 10.0878 14.8174 9.57738 14.9451C9.04873 15.0909 8.57477 14.9633 8.1555 14.5622L7.718 14.0974L7.2805 14.5622C6.843 14.9633 6.36904 15.0909 5.85863 14.9451C5.34821 14.8174 5.00186 14.4711 4.81956 13.906L4.6555 13.2771L4.05394 13.4685C3.48883 13.5961 3.01488 13.4685 2.63206 13.0857C2.24925 12.7211 2.12165 12.2471 2.24925 11.6638L2.44066 11.0349L1.81175 10.8982C1.24665 10.7159 0.900293 10.3695 0.772689 9.85911C0.626855 9.3487 0.75446 8.87474 1.1555 8.43724L1.62035 7.99974L1.1555 7.56224C0.75446 7.12474 0.626855 6.65078 0.772689 6.14036C0.900293 5.62995 1.24665 5.28359 1.81175 5.1013L2.44066 4.93724L2.24925 4.33568C2.12165 3.75234 2.24925 3.27839 2.63206 2.9138C3.01488 2.53099 3.48883 2.40339 4.05394 2.53099L4.6555 2.7224L4.81956 2.09349C5.00186 1.52839 5.34821 1.18203 5.85863 1.05443C6.36904 0.908594 6.843 1.0362 7.2805 1.43724L7.718 1.90208L8.1555 1.43724C8.593 1.0362 9.06696 0.908594 9.57738 1.05443C10.0878 1.18203 10.4341 1.52839 10.6164 2.09349L10.7532 2.7224L11.3821 2.53099C11.9472 2.40339 12.4211 2.53099 12.8039 2.9138C13.1868 3.27839 13.3144 3.75234 13.1868 4.33568L12.9953 4.93724L13.6243 5.1013C14.1894 5.28359 14.5357 5.62995 14.6633 6.14036C14.8091 6.65078 14.6815 7.12474 14.2805 7.56224L13.8157 7.99974L14.2805 8.43724ZM13.4055 10.0505C13.6243 9.9776 13.761 9.84089 13.8157 9.64036C13.8703 9.43984 13.8248 9.24844 13.6789 9.06615L12.5578 7.99974L13.6789 6.93333C13.8248 6.75104 13.8703 6.55964 13.8157 6.35911C13.761 6.15859 13.6243 6.02187 13.4055 5.94896L11.9016 5.56615L12.3391 4.08958C12.3938 3.87083 12.3391 3.68854 12.175 3.54271C12.0292 3.37865 11.8469 3.32396 11.6282 3.37865L10.1516 3.81615L9.76878 2.31224C9.69587 2.09349 9.55915 1.95677 9.35863 1.90208C9.15811 1.8474 8.9667 1.89297 8.78441 2.0388L7.718 3.1599L6.6516 2.0388C6.48753 1.89297 6.29613 1.8474 6.07738 1.90208C5.87686 1.95677 5.74014 2.09349 5.66722 2.31224L5.28441 3.81615L3.80785 3.37865C3.5891 3.32396 3.4068 3.37865 3.26097 3.54271C3.09691 3.68854 3.04222 3.87083 3.09691 4.08958L3.53441 5.56615L2.0305 5.94896C1.81175 6.02187 1.67503 6.15859 1.62035 6.35911C1.56566 6.55964 1.61123 6.75104 1.75706 6.93333L2.87816 7.99974L1.75706 9.06615C1.61123 9.24844 1.56566 9.43984 1.62035 9.64036C1.67503 9.84089 1.81175 9.9776 2.0305 10.0505L3.53441 10.4333L3.09691 11.9099C3.04222 12.1286 3.09691 12.3109 3.26097 12.4568C3.4068 12.6208 3.5891 12.6755 3.80785 12.6208L5.28441 12.1833L5.66722 13.6872C5.74014 13.9242 5.87686 14.0609 6.07738 14.0974C6.29613 14.1521 6.48753 14.1065 6.6516 13.9607L7.718 12.8396L8.78441 13.9333C8.94847 14.0974 9.13988 14.1521 9.35863 14.0974C9.55915 14.0427 9.69587 13.906 9.76878 13.6872L10.1516 12.1833L11.6282 12.6208C11.8469 12.6755 12.0292 12.6208 12.175 12.4568C12.3391 12.3109 12.3938 12.1286 12.3391 11.9099L11.9016 10.4333L13.4055 10.0505Z" fill="#0B074E"/>
</svg>
