<svg width="15" height="8" viewBox="0 0 15 8" fill="none" xmlns="http://www.w3.org/2000/svg">
  <path d="M6.85684 7.74493C6.94127 7.82532 7.04153 7.88909 7.15189 7.9326C7.26225 7.97612 7.38055 7.99851 7.50002 7.99851C7.61949 7.99851 7.73778 7.97612 7.84815 7.9326C7.95851 7.88909 8.05877 7.82532 8.1432 7.74493L14.7341 1.47635C14.9047 1.31411 15.0005 1.09407 15.0005 0.864624C15.0005 0.635182 14.9047 0.415137 14.7341 0.252897C14.5635 0.0906571 14.3322 -0.000488276 14.0909 -0.000488281C13.8497 -0.000488287 13.6183 0.0906571 13.4477 0.252897L7.50002 5.90975L1.55229 0.252897C1.38171 0.0906571 1.15035 -0.000488285 0.909108 -0.000488281C0.667868 -0.000488278 0.436509 0.0906571 0.265926 0.252897C0.0953439 0.415137 -0.000488278 0.635182 -0.000488281 0.864624C-0.000488285 1.09407 0.0953439 1.31411 0.265926 1.47635L6.85684 7.74493Z" />
</svg>
  