<svg width="18" height="10" viewBox="0 0 18 10" fill="none" xmlns="http://www.w3.org/2000/svg">
<path id="Vector" d="M8.22781 0.319207C8.32913 0.218719 8.44944 0.139001 8.58188 0.0846109C8.71431 0.030221 8.85627 0.00222683 8.99963 0.00222683C9.14299 0.00222683 9.28495 0.030221 9.41738 0.0846109C9.54982 0.139001 9.67013 0.218719 9.77145 0.319207L17.6805 8.15493C17.8852 8.35773 18.0002 8.63278 18.0002 8.91959C18.0002 9.20639 17.8852 9.48144 17.6805 9.68424C17.4758 9.88704 17.1982 10.001 16.9087 10.001C16.6192 10.001 16.3416 9.88704 16.1369 9.68424L8.99963 2.61318L1.86236 9.68424C1.65766 9.88704 1.38003 10.001 1.09054 10.001C0.801051 10.001 0.52342 9.88704 0.318721 9.68424C0.114022 9.48144 -0.000976558 9.20639 -0.000976562 8.91959C-0.000976567 8.63278 0.114022 8.35773 0.318721 8.15493L8.22781 0.319207Z" />
</svg>
