<svg width="16" height="14" viewBox="0 0 16 14" fill="none" xmlns="http://www.w3.org/2000/svg">
<path d="M13.5537 1.75C14.0811 1.76953 14.5205 1.95508 14.8721 2.30664C15.2236 2.6582 15.4092 3.09766 15.4287 3.625V11.125C15.4092 11.6523 15.2236 12.0918 14.8721 12.4434C14.5205 12.7949 14.0811 12.9805 13.5537 13H2.30371C1.77637 12.9805 1.33691 12.7949 0.985352 12.4434C0.633789 12.0918 0.448242 11.6523 0.428711 11.125V3.625C0.448242 3.09766 0.633789 2.6582 0.985352 2.30664C1.33691 1.95508 1.77637 1.76953 2.30371 1.75H13.5537ZM2.30371 2.6875C2.03027 2.6875 1.80566 2.77539 1.62988 2.95117C1.4541 3.12695 1.36621 3.35156 1.36621 3.625V4.67969L7.0791 8.95703C7.33301 9.15234 7.61621 9.25 7.92871 9.25C8.24121 9.25 8.52441 9.15234 8.77832 8.95703L14.4912 4.67969V3.625C14.4912 3.35156 14.4033 3.12695 14.2275 2.95117C14.0518 2.77539 13.8271 2.6875 13.5537 2.6875H2.30371ZM14.4912 11.125V5.82227L9.33496 9.71875C8.90527 10.0312 8.43652 10.1875 7.92871 10.1875C7.4209 10.1875 6.95215 10.0312 6.52246 9.71875L1.36621 5.82227V11.125C1.36621 11.3984 1.4541 11.623 1.62988 11.7988C1.80566 11.9746 2.03027 12.0625 2.30371 12.0625H13.5537C13.8271 12.0625 14.0518 11.9746 14.2275 11.7988C14.4033 11.623 14.4912 11.3984 14.4912 11.125Z" />
</svg>
