<svg width="21" height="19" viewBox="0 0 21 19" fill="none" xmlns="http://www.w3.org/2000/svg">
<path d="M18.5469 1.96094C19.7708 3.08073 20.4219 4.40885 20.5 5.94531C20.5521 7.48177 20.0312 8.84896 18.9375 10.0469L11.3984 17.8594C11.138 18.1198 10.8385 18.25 10.5 18.25C10.1615 18.25 9.86198 18.1198 9.60156 17.8594L2.0625 10.0469C0.96875 8.875 0.447917 7.50781 0.5 5.94531C0.552083 4.40885 1.1901 3.08073 2.41406 1.96094C3.40365 1.15365 4.4974 0.75 5.69531 0.75C7.23177 0.776042 8.57292 1.34896 9.71875 2.46875L10.5 3.25L11.2812 2.46875C12.4271 1.34896 13.7682 0.776042 15.3047 0.75C16.5286 0.723958 17.6094 1.1276 18.5469 1.96094ZM17.6094 8.75781C18.2604 8.05469 18.599 7.18229 18.625 6.14062C18.651 5.09896 18.2344 4.17448 17.375 3.36719C16.5417 2.71615 15.6823 2.48177 14.7969 2.66406C13.8854 2.84635 13.1562 3.21094 12.6094 3.75781L10.5 5.94531L8.39062 3.75781C7.81771 3.1849 7.08854 2.82031 6.20312 2.66406C5.31771 2.50781 4.45833 2.74219 3.625 3.36719C2.76562 4.17448 2.34896 5.09896 2.375 6.14062C2.40104 7.18229 2.73958 8.05469 3.39062 8.75781L10.5 16.1016L17.6094 8.75781Z" fill="#605F71"/>
</svg>
