<svg width="21" height="19" viewBox="0 0 21 19" fill="none" xmlns="http://www.w3.org/2000/svg">
<path d="M18.9375 10.0859L11.3984 17.8594C11.138 18.1198 10.8385 18.25 10.5 18.25C10.1615 18.25 9.86198 18.1198 9.60156 17.8594L2.0625 10.0859C0.96875 8.88802 0.447917 7.50781 0.5 5.94531C0.552083 4.40885 1.1901 3.08073 2.41406 1.96094C3.53385 1.04948 4.77083 0.645833 6.125 0.75C7.50521 0.880208 8.70312 1.45312 9.71875 2.46875L10.5 3.25L11.2812 2.46875C12.2969 1.45312 13.4818 0.880208 14.8359 0.75C16.2161 0.645833 17.4661 1.04948 18.5859 1.96094C19.8099 3.08073 20.4479 4.40885 20.5 5.94531C20.5521 7.48177 20.0312 8.86198 18.9375 10.0859Z" fill="#E95043"/>
</svg>
