<svg width="15" height="14" viewBox="0 0 15 14" fill="none" xmlns="http://www.w3.org/2000/svg">
<path d="M6 0.890625H4C2.34315 0.890625 1 2.23377 1 3.89062V9.89062C1 11.5475 2.34315 12.8906 4 12.8906H6" stroke-width="1" stroke="currentColor" stroke-linecap="round"/>
<path d="M6 6.39062C5.72386 6.39062 5.5 6.61448 5.5 6.89062C5.5 7.16677 5.72386 7.39062 6 7.39062V6.39062ZM14.3536 7.24418C14.5488 7.04892 14.5488 6.73233 14.3536 6.53707L11.1716 3.35509C10.9763 3.15983 10.6597 3.15983 10.4645 3.35509C10.2692 3.55035 10.2692 3.86694 10.4645 4.0622L13.2929 6.89062L10.4645 9.71905C10.2692 9.91431 10.2692 10.2309 10.4645 10.4262C10.6597 10.6214 10.9763 10.6214 11.1716 10.4262L14.3536 7.24418ZM6 7.39062H14V6.39062H6V7.39062Z" fill="currentColor"/>
</svg>
