<svg width="24" height="18" viewBox="0 0 24 18" fill="none" xmlns="http://www.w3.org/2000/svg">
<path d="M0.571289 17C0.658507 16.6855 1.30832 14.7138 2.08192 14.5211M14.5713 17C14.2461 16.2182 13.6963 14.9718 13.04 14.5211M1.88324 14.643C2.01294 14.527 2.15234 14.4206 2.30745 14.334L4.95071 12.8585C5.29737 12.6648 5.51333 12.2929 5.51366 11.8892V10.7808C5.51366 10.7808 4.7381 9.83103 4.44192 8.51148C3.96053 8.19564 3.85527 7.33658 3.96053 6.43108C3.96053 6.16423 4.1931 5.88346 4.44192 5.82261C4.44192 5.82261 4.31726 4.54483 4.32826 4.10907C4.34272 3.53618 4.19835 2.11095 6.39818 1.50248C6.65876 1.4304 6.5993 1.04178 6.77767 1.01571C7.37221 0.928796 8.20022 1.22661 8.50186 1.31994C10.8617 2.0501 10.8801 3.6223 10.8801 4.10907C10.8801 4.60079 10.7978 5.82261 10.7978 5.82261C10.978 5.98957 11.1432 6.12685 11.1432 6.53505C11.1432 7.2302 11.1432 8.43903 10.5127 8.61377C10.3104 9.2573 10.0186 9.87072 9.63282 10.4284C9.53554 10.569 9.44462 10.688 9.36506 10.7808V11.9173C9.36506 12.3357 9.59605 12.7182 9.96177 12.9053L12.7922 14.3535C12.9627 14.4404 13.1165 14.5506 13.2582 14.6731" stroke="#0B074E" stroke-linecap="round"/>
<path d="M14.5713 7.5C14.5713 7.22386 14.7951 7 15.0713 7H23.0713C23.3474 7 23.5713 7.22386 23.5713 7.5C23.5713 7.77614 23.3474 8 23.0713 8H15.0713C14.7951 8 14.5713 7.77614 14.5713 7.5Z" fill="currentColor"/>
<path d="M19.0713 3C19.3474 3 19.5713 3.22386 19.5713 3.5L19.5713 11.5C19.5713 11.7761 19.3474 12 19.0713 12C18.7951 12 18.5713 11.7761 18.5713 11.5L18.5713 3.5C18.5713 3.22386 18.7951 3 19.0713 3Z" fill="currentColor"/>
</svg>
