<svg width="15" height="16" viewBox="0 0 15 16" fill="none" xmlns="http://www.w3.org/2000/svg">
<path d="M1 15C1.08099 14.7248 1.68439 12.9996 2.40273 12.8309M14 15C13.698 14.316 13.1875 13.2253 12.5781 12.8309M2.21824 12.9376C2.33868 12.8361 2.46812 12.743 2.61215 12.6673L5.06661 11.3761C5.38851 11.2067 5.58904 10.8813 5.58935 10.5281V9.55816C5.58935 9.55816 4.86918 8.72715 4.59416 7.57254C4.14715 7.29619 4.04941 6.54451 4.14715 5.7522C4.14715 5.5187 4.36311 5.27303 4.59416 5.21979C4.59416 5.21979 4.4784 4.10173 4.48861 3.72044C4.50204 3.21916 4.36798 1.97208 6.41068 1.43967C6.65265 1.3766 6.59744 1.03656 6.76306 1.01375C7.31515 0.937696 8.08401 1.19828 8.3641 1.27994C10.5554 1.91884 10.5724 3.29451 10.5724 3.72044C10.5724 4.15069 10.4961 5.21979 10.4961 5.21979C10.6634 5.36587 10.8167 5.48599 10.8167 5.84317C10.8167 6.45142 10.8167 7.50915 10.2313 7.66205C10.0435 8.22514 9.7725 8.76188 9.41428 9.24983C9.32395 9.37286 9.23952 9.47704 9.16564 9.55816V10.5526C9.16564 10.9187 9.38014 11.2534 9.71973 11.4172L12.348 12.6843C12.5063 12.7604 12.6491 12.8568 12.7807 12.9639" stroke="currentColor" stroke-width="1.2" stroke-linecap="round"/>
</svg>
